<?xml version="1.0" standalone="no"?>
<!DOCTYPE svg PUBLIC "-//W3C//DTD SVG 20010904//EN"
 "http://www.w3.org/TR/2001/REC-SVG-20010904/DTD/svg10.dtd">
<svg version="1.0" xmlns="http://www.w3.org/2000/svg"
 width="512.000000pt" height="512.000000pt" viewBox="0 0 512.000000 512.000000"
 preserveAspectRatio="xMidYMid meet">
<metadata>
Created by potrace 1.14, written by Peter Selinger 2001-2017
</metadata>
<g transform="translate(0.000000,512.000000) scale(0.100000,-0.100000)"
fill="#000000" stroke="none">
<path d="M2465 4334 c-108 -12 -274 -47 -371 -79 -664 -218 -1131 -794 -1204
-1487 -67 -641 232 -1275 770 -1633 527 -350 1191 -392 1752 -110 488 246 820
681 935 1224 24 114 27 146 27 341 0 195 -3 227 -27 341 -35 167 -85 308 -163
459 -89 173 -178 295 -319 435 -148 147 -268 234 -450 325 -255 127 -463 179
-745 185 -91 2 -183 1 -205 -1z m506 -882 c244 -66 369 -211 369 -428 0 -180
-65 -310 -196 -394 l-43 -27 60 -29 c274 -130 320 -546 87 -776 -67 -65 -194
-133 -308 -164 -130 -34 -659 -30 -807 8 l-43 10 0 894 c0 842 1 893 18 898 9
3 60 10 112 15 52 6 109 13 125 15 17 2 147 3 290 1 227 -2 270 -5 336 -23z"/>
<path d="M2500 2921 l0 -201 108 6 c82 5 119 12 162 30 114 51 150 97 150 191
0 73 -24 114 -82 145 -38 20 -61 23 -190 26 l-148 4 0 -201z"/>
<path d="M2500 2169 l0 -201 153 4 c140 3 157 5 201 28 74 38 109 87 114 160
5 72 -8 109 -54 150 -53 46 -118 60 -276 60 l-138 0 0 -201z"/>
</g>
</svg>
